<svg width="208" height="66" viewBox="0 0 208 66" fill="none" xmlns="http://www.w3.org/2000/svg">
<path d="M11.2651 6.75906V1.12651H3.37953V0H12.3916V5.63255H14.0814V0H17.4609V1.12651H15.2079V6.75906H11.2651ZM19.7139 12.3916V8.44883H22.5302V6.75906H19.7139V2.81628H22.5302V0H26.473V8.44883H28.1627V2.81628H32.1055V8.44883H39.9911V9.57533H30.979V3.94278H29.2893V9.57533H25.3465V1.12651H23.6567V3.94278H20.8404V5.63255H23.6567V9.57533H20.8404V11.2651H23.0934V12.3916H19.7139ZM28.726 1.12651V0H31.5423V1.12651H28.726ZM0 12.3916V9.01208H1.12651V11.2651H2.81627V6.75906H0V2.81628H6.1958V3.94278H1.12651V5.63255H3.94278V12.3916H0ZM33.7953 6.75906V2.81628H42.8074V3.94278H34.9218V5.63255H42.8074V6.75906H33.7953ZM8.44882 6.1958V3.37953H9.57533V6.1958H8.44882ZM16.8976 6.1958V3.37953H18.0242V6.1958H16.8976ZM42.8074 9.57533V8.44883H47.8767V6.1958H49.0032V9.57533H42.8074ZM5.63255 26.473V18.0242H2.81627V14.0814H8.44882V12.3916H5.63255V8.44883H12.3916V11.2651H14.0814V8.44883H18.0242V15.2079H14.6446V14.0814H16.8976V9.57533H15.2079V12.3916H11.2651V9.57533H6.75906V11.2651H9.57533V15.2079H3.94278V16.8976H6.75906V25.3465H8.44882V22.5302H11.2651V14.6446H12.3916V23.6567H9.57533V26.473H5.63255ZM45.0604 34.9218V29.2893H36.6116V25.3465H39.9911V26.473H37.7381V28.1627H46.1869V33.7953H47.8767V19.7139H50.6929V15.2079H47.8767V11.2651H54.6357V16.8976H56.3255V14.6446H57.452V18.0242H53.5092V12.3916H49.0032V14.0814H51.8194V20.8404H49.0032V34.9218H45.0604ZM36.6116 23.6567V20.8404H30.979V12.3916H26.473V18.0242H22.5302V15.2079H20.8404V19.7139H23.0934V20.8404H19.7139V14.0814H23.6567V16.8976H25.3465V11.2651H32.1055V19.7139H37.7381V22.5302H39.4278V19.7139H42.2441V14.0814H45.0604V12.3916H34.9218V14.6446H33.7953V11.2651H46.1869V15.2079H43.3706V20.8404H40.5543V23.6567H36.6116ZM36.6116 18.0242V14.0814H39.9911V15.2079H37.7381V16.8976H39.9911V18.0242H36.6116ZM0 17.4609V14.6446H1.12651V17.4609H0ZM28.1627 17.4609V14.6446H29.2893V17.4609H28.1627ZM16.8976 34.3585V30.979H22.5302V23.6567H20.8404V29.2893H14.0814V25.3465H16.8976V20.8404H14.0814V16.8976H17.4609V18.0242H15.2079V19.7139H18.0242V26.473H15.2079V28.1627H19.7139V22.5302H23.6567V32.1055H18.0242V34.3585H16.8976ZM45.0604 20.2772V16.8976H48.4399V18.0242H46.1869V20.2772H45.0604ZM8.44882 20.2772V17.4609H9.57533V20.2772H8.44882ZM0 32.1055V19.7139H3.94278V28.1627H6.1958V29.2893H2.81627V20.8404H1.12651V30.979H3.37953V32.1055H0ZM56.3255 23.6567V20.8404H54.0725V19.7139H57.452V22.5302H59.705V23.6567H56.3255ZM42.2441 25.9097V22.5302H46.1869V25.9097H45.0604V23.6567H43.3706V25.9097H42.2441ZM50.6929 37.7381V22.5302H54.6357V33.7953H57.452V36.6116H59.1418V32.1055H56.3255V25.3465H60.2683V28.726H59.1418V26.473H57.452V30.979H60.2683V37.7381H56.3255V34.9218H53.5092V23.6567H51.8194V36.6116H54.0725V37.7381H50.6929ZM8.44882 46.1869V43.3706H0V39.4278H5.63255V37.7381H2.81627V33.7953H5.63255V30.979H8.44882V28.1627H12.3916V30.979H15.2079V37.7381H11.2651V34.9218H9.57533V39.4278H18.0242V42.2441H19.7139V39.4278H22.5302V34.9218H20.8404V37.7381H17.4609V36.6116H19.7139V33.7953H23.6567V40.5544H20.8404V43.3706H16.8976V40.5544H8.44882V33.7953H12.3916V36.6116H14.0814V32.1055H11.2651V29.2893H9.57533V32.1055H6.75906V34.9218H3.94278V36.6116H6.75906V40.5544H1.12651V42.2441H9.57533V45.0604H14.0814V43.3706H11.8284V42.2441H15.2079V46.1869H8.44882ZM28.1627 51.8194V49.0032H22.5302V42.8074H23.6567V47.8767H29.2893V50.6929H30.979V47.8767H33.7953V45.0604H36.6116V30.979H43.3706V34.3585H42.2441V32.1055H37.7381V46.1869H34.9218V49.0032H32.1055V51.8194H28.1627ZM0 37.1748V34.3585H1.12651V37.1748H0ZM39.4278 37.7381V34.3585H40.5543V36.6116H48.4399V37.7381H39.4278ZM53.5092 46.1869V40.5544H43.3706V43.3706H39.4278V39.9911H40.5543V42.2441H42.2441V39.4278H54.6357V45.0604H59.1418V40.5544H57.452V42.8074H56.3255V39.4278H60.2683V46.1869H53.5092ZM50.6929 48.4399V46.1869H47.8767V42.2441H51.2562V43.3706H49.0032V45.0604H51.8194V48.4399H50.6929ZM42.2441 54.6357V45.6236H43.3706V53.5092H45.0604V42.8074H46.1869V54.6357H42.2441ZM19.7139 54.6357V49.0032H16.8976V45.0604H20.2772V46.1869H18.0242V47.8767H20.8404V53.5092H22.5302V50.6929H26.473V54.0725H25.3465V51.8194H23.6567V54.6357H19.7139ZM19.7139 65.9008V63.0845H11.2651V57.452H0V53.5092H2.81627V45.0604H6.75906V50.6929H8.44882V47.8767H12.3916V53.5092H14.0814V50.6929H18.0242V56.3255H20.8404V59.1418H22.5302V56.3255H26.473V64.7743H42.2441V60.2683H40.5543V63.0845H33.7953V60.2683H28.1627V56.3255H33.7953V53.5092H36.6116V51.8194H34.3585V50.6929H37.7381V54.6357H34.9218V57.452H29.2893V59.1418H34.9218V61.958H39.4278V59.1418H43.3706V65.9008H25.3465V57.452H23.6567V60.2683H19.7139V57.452H16.8976V51.8194H15.2079V54.6357H11.2651V49.0032H9.57533V51.8194H5.63255V46.1869H3.94278V54.6357H1.12651V56.3255H12.3916V61.958H20.8404V64.7743H22.5302V62.5213H23.6567V65.9008H19.7139ZM39.4278 51.2562V45.6236H40.5543V51.2562H39.4278ZM0 48.4399V45.6236H1.12651V48.4399H0ZM56.3255 54.0725V49.0032H54.0725V47.8767H57.452V54.0725H56.3255ZM45.0604 63.0845V56.3255H48.4399V57.452H46.1869V61.958H47.8767V59.1418H50.6929V56.3255H53.5092V51.8194H49.0032V53.5092H51.2562V54.6357H47.8767V50.6929H54.6357V57.452H51.8194V60.2683H49.0032V63.0845H45.0604ZM6.1958 54.6357V53.5092H9.01208V54.6357H6.1958ZM28.726 54.6357V53.5092H31.5423V54.6357H28.726ZM39.4278 57.452V54.0725H40.5543V56.3255H42.8074V57.452H39.4278ZM36.6116 59.705V56.8887H37.7381V59.705H36.6116ZM8.44882 65.3376V63.0845H5.63255V59.1418H9.01208V60.2683H6.75906V61.958H9.57533V65.3376H8.44882ZM14.6446 60.2683V59.1418H17.4609V60.2683H14.6446ZM0 63.0845V59.705H1.12651V61.958H2.81627V59.705H3.94278V63.0845H0ZM28.726 63.0845V61.958H31.5423V63.0845H28.726ZM0.563255 65.9008V64.7743H6.1958V65.9008H0.563255ZM11.8284 65.9008V64.7743H17.4609V65.9008H11.8284Z" fill="url(#paint0_linear_222_161)"/>
<path d="M73.7112 7.56706V6.45595H78.8751V2.0115H74.2849V3.67817H76.58V4.78928H73.1374V0.900391H80.0227V7.56706H73.7112ZM107.564 20.9004V18.6782H104.695V15.9004H101.826V10.3448H100.105V13.1226H97.2358V15.9004H93.2194V13.1226H90.3505V7.56706H87.4817V0.900391H91.4981V3.67817H93.2194V1.45594H94.3669V4.78928H90.3505V2.0115H88.6292V6.45595H91.4981V12.0115H94.3669V14.7893H96.0882V12.0115H98.9571V9.23373H102.973V14.7893H105.842V17.5671H108.711V20.9004H107.564ZM124.777 15.9004V10.3448H119.039V7.56706H113.301V4.23373H114.449V6.45595H120.187V9.23373H125.924V14.7893H127.646V12.0115H130.514V9.23373H133.383V3.67817H136.252V2.0115H131.662V7.56706H124.777V0.900391H128.793V4.23373H127.646V2.0115H125.924V6.45595H130.514V0.900391H137.4V4.78928H134.531V10.3448H131.662V13.1226H128.793V15.9004H124.777ZM116.17 4.78928V0.900391H119.613V2.0115H117.318V3.67817H121.908V1.45594H123.055V4.78928H116.17ZM81.744 4.78928V1.45594H82.8915V3.67817H84.6128V1.45594H85.7604V4.78928H81.744ZM82.3177 15.9004V14.7893H84.6128V12.0115H87.4817V10.3448H84.6128V7.56706H82.8915V13.1226H78.8751V10.3448H77.1538V12.5671H76.0063V9.23373H80.0227V12.0115H81.744V6.45595H85.7604V9.23373H88.6292V13.1226H85.7604V15.9004H82.3177ZM93.2194 10.3448V6.45595H99.5309V7.56706H94.3669V9.23373H96.662V10.3448H93.2194ZM119.039 15.9004V13.1226H116.17V10.3448H110.433V7.0115H111.58V9.23373H117.318V12.0115H120.187V14.7893H121.908V12.5671H123.055V15.9004H119.039ZM108.137 15.9004V14.7893H110.433V13.1226H107.564V9.78928H108.711V12.0115H111.58V15.9004H108.137ZM113.301 15.9004V12.5671H114.449V14.7893H116.744V15.9004H113.301ZM78.8751 18.6782V15.3448H80.0227V17.5671H85.1866V18.6782H78.8751ZM87.4817 18.1226V15.3448H88.6292V18.1226H87.4817ZM110.433 40.9004V35.3448H104.695V31.4559H107.564V28.6782H111.58V31.4559H113.301V18.6782H111.58V27.0115H104.695V24.2337H100.105V27.0115H91.4981V29.7893H87.4817V27.0115H84.6128V23.6782H85.7604V25.9004H88.6292V28.6782H90.3505V25.9004H98.9571V23.1226H105.842V25.9004H110.433V17.5671H114.449V32.5671H110.433V29.7893H108.711V32.5671H105.842V34.2337H111.58V39.7893H116.17V37.0115H119.039V35.3448H114.449V37.5671H113.301V34.2337H120.187V38.1226H117.318V40.9004H110.433ZM87.4817 24.2337V20.3448H90.3505V17.5671H93.7932V18.6782H91.4981V21.4559H88.6292V23.1226H93.2194V20.3448H98.9571V18.6782H96.662V17.5671H100.105V21.4559H94.3669V24.2337H87.4817ZM116.17 32.0115V28.6782H119.039V25.9004H121.908V18.6782H120.187V21.4559H117.318V23.1226H119.613V24.2337H116.17V20.3448H119.039V17.5671H123.055V27.0115H120.187V29.7893H117.318V32.0115H116.17ZM101.826 21.4559V18.1226H102.973V20.3448H105.269V21.4559H101.826ZM124.777 23.6782V18.1226H125.924V23.6782H124.777ZM82.3177 21.4559V20.3448H85.1866V21.4559H82.3177ZM99.5309 29.7893V28.6782H101.826V26.4559H102.973V29.7893H99.5309ZM90.3505 37.5671V34.2337H96.0882V32.5671H93.2194V28.6782H96.662V29.7893H94.3669V31.4559H97.2358V35.3448H91.4981V37.5671H90.3505ZM98.9571 35.3448V32.0115H100.105V34.2337H101.826V32.0115H102.973V35.3448H98.9571ZM87.4817 40.9004V34.7893H88.6292V39.7893H93.7932V40.9004H87.4817ZM96.0882 40.3448V38.1226H93.7932V37.0115H97.2358V40.3448H96.0882ZM113.301 49.2337V46.4559H110.433V43.6782H108.711V46.4559H104.695V43.6782H102.973V46.4559H98.9571V37.0115H108.711V40.3448H107.564V38.1226H100.105V45.3448H101.826V42.5671H105.842V45.3448H107.564V42.5671H111.58V45.3448H114.449V48.1226H116.17V45.3448H128.793V49.2337H119.613V48.1226H127.646V46.4559H117.318V49.2337H113.301ZM113.875 43.6782V42.5671H119.039V39.7893H121.908V37.5671H123.055V40.9004H120.187V43.6782H113.875ZM102.4 40.9004V39.7893H105.269V40.9004H102.4ZM84.6128 43.1226V40.3448H85.7604V43.1226H84.6128ZM87.4817 60.3448V50.9004H90.3505V43.6782H88.6292V46.4559H85.7604V54.7893H82.8915V56.4559H85.1866V57.5671H81.744V53.6782H84.6128V45.3448H87.4817V42.5671H91.4981V52.0115H88.6292V59.2337H90.3505V56.4559H93.2194V54.7893H90.9243V53.6782H94.3669V57.5671H91.4981V60.3448H87.4817ZM90.9243 65.9004V64.7893H93.2194V59.2337H96.0882V43.6782H94.3669V51.4559H93.2194V42.5671H97.2358V60.3448H94.3669V65.9004H90.9243ZM122.482 43.6782V42.5671H125.351V43.6782H122.482ZM76.0063 63.1226V54.2337H77.1538V62.0115H78.8751V50.9004H81.744V45.9004H82.8915V52.0115H80.0227V63.1226H76.0063ZM98.9571 54.7893V51.4559H100.105V53.6782H101.826V49.2337H99.5309V48.1226H102.973V54.7893H98.9571ZM119.039 65.9004V60.3448H116.17V56.4559H123.055V62.0115H127.646V52.0115H123.055V54.7893H119.039V52.0115H117.318V54.7893H111.58V57.5671H107.564V52.0115H104.695V48.1226H108.137V49.2337H105.842V50.9004H108.711V56.4559H110.433V53.6782H116.17V50.9004H120.187V53.6782H121.908V50.9004H128.793V63.1226H121.908V57.5671H117.318V59.2337H120.187V64.7893H133.383V59.2337H137.4V64.7893H139.121V62.5671H140.269V65.9004H136.252V60.3448H134.531V65.9004H119.039ZM110.433 51.4559V48.6782H111.58V51.4559H110.433ZM130.514 57.5671V51.4559H131.662V56.4559H133.383V54.2337H134.531V57.5671H130.514ZM124.777 59.7893V54.2337H125.924V59.7893H124.777ZM70.2686 65.9004V62.0115H73.1374V57.0115H74.2849V63.1226H71.4161V64.7893H76.58V65.9004H70.2686ZM98.9571 59.7893V57.0115H100.105V59.7893H98.9571ZM116.17 65.3448V63.1226H113.301V60.3448H111.58V62.5671H110.433V59.2337H114.449V62.0115H117.318V65.3448H116.17ZM81.744 62.5671V59.7893H82.8915V62.5671H81.744ZM130.514 62.5671V59.7893H131.662V62.5671H130.514ZM85.1866 63.1226V62.0115H90.9243V63.1226H85.1866ZM79.4489 65.9004V64.7893H85.1866V65.9004H79.4489Z" fill="url(#paint1_linear_222_161)"/>
<path d="M150.269 26.473V22.5302H153.085V20.8404H150.269V14.0814H153.085V12.3916H150.269V3.37953H151.395V11.2651H154.211V15.2079H151.395V19.7139H154.211V23.6567H151.395V25.3465H155.901V14.0814H158.717V6.75906H153.085V2.81628H155.901V0H165.476V2.81628H167.166V0H171.109V5.63255H173.925V8.44883H175.615V2.81628H178.431V0H185.19V2.81628H193.639V6.75906H181.811V5.63255H192.513V3.94278H184.064V1.12651H179.558V3.94278H176.742V9.57533H172.799V6.75906H169.982V1.12651H168.293V3.94278H164.35V1.12651H157.028V3.94278H154.211V5.63255H159.844V15.2079H157.028V26.473H150.269ZM172.799 3.37953V0H176.178V1.12651H173.925V3.37953H172.799ZM159.281 3.94278V2.81628H162.097V3.94278H159.281ZM181.248 32.1055V28.1627H184.064V25.3465H189.696V23.6567H184.064V18.0242H181.248V15.2079H172.799V12.3916H161.534V8.44883H167.166V6.75906H164.913V5.63255H168.293V9.57533H162.66V11.2651H173.925V14.0814H182.374V16.8976H185.19V22.5302H190.823V26.473H185.19V29.2893H182.374V30.979H189.696V29.2893H187.443V28.1627H190.823V32.1055H181.248ZM195.892 6.75906V5.63255H198.708V6.75906H195.892ZM176.178 12.3916V11.2651H181.248V9.57533H178.431V6.1958H179.558V8.44883H182.374V12.3916H176.178ZM155.901 11.8283V9.57533H153.648V8.44883H157.028V11.8283H155.901ZM198.708 12.3916V11.2651H200.961V9.57533H193.076V8.44883H202.088V12.3916H198.708ZM200.961 23.6567V15.2079H199.272V18.0242H192.513V15.2079H190.823V18.0242H186.88V12.3916H184.064V8.44883H190.823V11.2651H196.455V14.6446H195.329V12.3916H189.696V9.57533H185.19V11.2651H188.007V16.8976H189.696V14.0814H193.639V16.8976H198.145V14.0814H202.088V22.5302H206.594V20.2772H207.721V23.6567H200.961ZM203.778 11.8283V9.01208H204.904V11.8283H203.778ZM186.88 46.1869V39.4278H190.26V40.5544H188.007V45.0604H189.696V42.2441H192.513V37.7381H186.88V34.9218H178.431V29.2893H172.799V20.8404H169.982V18.0242H168.293V20.8404H165.476V22.5302H171.109V29.2893H161.534V23.6567H158.717V19.7139H161.534V16.8976H164.35V14.0814H167.729V15.2079H165.476V18.0242H162.66V20.8404H159.844V22.5302H162.66V28.1627H169.982V23.6567H164.35V19.7139H167.166V16.8976H171.109V19.7139H173.925V28.1627H179.558V33.7953H188.007V36.6116H193.639V43.3706H190.823V46.1869H186.88ZM204.341 15.2079V14.0814H207.157V15.2079H204.341ZM173.362 18.0242V16.8976H178.995V18.0242H173.362ZM203.778 20.2772V16.8976H207.157V18.0242H204.904V20.2772H203.778ZM187.443 20.8404V19.7139H193.076V20.8404H187.443ZM192.513 29.2893V22.5302H195.329V19.7139H199.272V23.0934H198.145V20.8404H196.455V23.6567H193.639V28.1627H195.329V25.3465H199.272V28.1627H201.525V29.2893H198.145V26.473H196.455V29.2893H192.513ZM201.525 26.473V25.3465H204.341V26.473H201.525ZM164.913 26.473V25.3465H167.729V26.473H164.913ZM167.166 40.5544V37.7381H164.913V36.6116H168.293V39.4278H169.982V32.1055H158.717V25.9097H159.844V30.979H171.109V40.5544H167.166ZM150.269 34.9218V31.5423H151.395V33.7953H153.085V29.2893H150.832V28.1627H154.211V34.9218H150.269ZM155.901 34.3585V28.726H157.028V34.3585H155.901ZM200.961 37.7381V31.5423H202.088V36.6116H203.778V28.726H204.904V37.7381H200.961ZM206.594 31.5423V28.726H207.721V31.5423H206.594ZM172.799 37.7381V30.979H176.742V34.3585H175.615V32.1055H173.925V36.6116H176.178V37.7381H172.799ZM195.329 40.5544V36.6116H198.145V32.1055H193.639V33.7953H195.892V34.9218H192.513V30.979H199.272V37.7381H196.455V39.4278H198.708V40.5544H195.329ZM164.913 34.9218V33.7953H167.729V34.9218H164.913ZM150.269 65.9008V59.1418H155.901V56.3255H159.844V59.705H158.717V57.452H157.028V60.2683H151.395V64.7743H158.717V61.958H162.66V64.7743H172.799V63.0845H164.35V60.2683H161.534V54.6357H154.211V57.452H150.269V47.8767H154.211V50.6929H155.901V45.0604H158.717V43.3706H155.901V36.6116H158.717V33.7953H162.66V39.4278H165.476V42.2441H168.293V45.0604H169.982V42.2441H173.925V45.0604H181.248V43.3706H176.178V42.2441H182.374V46.1869H172.799V43.3706H171.109V46.1869H167.166V43.3706H164.35V40.5544H161.534V34.9218H159.844V37.7381H157.028V42.2441H159.844V46.1869H157.028V51.8194H153.085V49.0032H151.395V56.3255H153.085V53.5092H162.66V59.1418H165.476V61.958H173.925V65.9008H161.534V63.0845H159.844V65.9008H150.269ZM184.064 42.8074V40.5544H181.248V37.7381H178.995V36.6116H182.374V39.4278H185.19V42.8074H184.064ZM150.832 40.5544V39.4278H153.085V37.7381H150.832V36.6116H154.211V40.5544H150.832ZM173.362 40.5544V39.4278H178.995V40.5544H173.362ZM150.269 45.6236V42.2441H154.211V45.6236H153.085V43.3706H151.395V45.6236H150.269ZM195.892 43.3706V42.2441H198.708V43.3706H195.892ZM167.166 60.2683V56.3255H172.799V54.6357H169.982V50.6929H172.799V49.0032H168.293V54.6357H164.35V51.8194H158.717V47.8767H161.534V42.8074H162.66V49.0032H159.844V50.6929H165.476V53.5092H167.166V47.8767H173.925V51.8194H171.109V53.5092H173.925V57.452H168.293V59.1418H170.546V60.2683H167.166ZM164.35 48.4399V45.6236H165.476V48.4399H164.35ZM153.648 63.0845V61.958H156.464V63.0845H153.648Z" fill="url(#paint2_linear_222_161)"/>
<defs>
<linearGradient id="paint0_linear_222_161" x1="0" y1="32.9504" x2="60.2683" y2="32.9504" gradientUnits="userSpaceOnUse">
<stop stop-color="#B3B3B3"/>
<stop offset="1" stop-color="#4D4D4D"/>
</linearGradient>
<linearGradient id="paint1_linear_222_161" x1="70.2686" y1="33.4004" x2="140.269" y2="33.4004" gradientUnits="userSpaceOnUse">
<stop stop-color="#B3B3B3"/>
<stop offset="1" stop-color="#4D4D4D"/>
</linearGradient>
<linearGradient id="paint2_linear_222_161" x1="150.269" y1="32.9504" x2="207.721" y2="32.9504" gradientUnits="userSpaceOnUse">
<stop stop-color="#B3B3B3"/>
<stop offset="1" stop-color="#4D4D4D"/>
</linearGradient>
</defs>
</svg>
