<svg width="367" height="61" viewBox="0 0 367 61" fill="none" xmlns="http://www.w3.org/2000/svg">
<g clip-path="url(#clip0_230_169)">
<path d="M9.25383 24.4086V11.9223H3.91955V24.4086H9.25383ZM10.0656 8C11.7122 8 13.1734 9.32288 13.1734 10.9707V25.3602C13.1734 27.008 11.7122 28.3309 10.0656 28.3309H0V25.2441V24.4086V11.9223V8H10.0656Z" fill="url(#paint0_linear_230_169)"/>
<path d="M36.0146 25.4297C36.4553 26.8224 35.4811 28.2148 34.0665 28.3309H33.8808H32.7676H28.1754V24.4086H31.6079L28.2219 13.0362L23.4209 28.3309H19.2695L25.9954 8H30.5179L36.0146 25.4297Z" fill="url(#paint1_linear_230_169)"/>
<path d="M46.1344 11.9457V15.7056H51.4687V11.9457H46.1344ZM52.6052 28.308L49.9844 19.6279H46.1344V28.308H42.2148V19.6279V15.7056V11.9457V8.02344H52.2804C53.927 8.02344 55.3882 9.32314 55.3882 10.971V16.6572C55.3882 18.0032 54.4142 19.1405 53.1617 19.5118C53.7881 19.8599 54.2982 20.4402 54.5069 21.1828L56.6871 28.308H52.6052Z" fill="url(#paint2_linear_230_169)"/>
<path d="M75.9566 11.9223H66.7029V16.2159H74.3564V19.7901H66.7029V24.4086H75.9566V28.3309H65.8911C64.2444 28.3309 62.7832 27.0312 62.7832 25.3834V10.9939C62.7832 9.34606 64.2444 8 65.8911 8H75.9566V11.9223Z" fill="url(#paint3_linear_230_169)"/>
<path d="M9.25387 56.7387V44.2524H3.91971V56.7387H9.25387ZM10.0657 40.3301C11.7124 40.3301 13.1734 41.653 13.1734 43.3008V57.6903C13.1734 59.3381 11.7124 60.661 10.0657 60.661H0V57.5742V56.7387V44.2524V40.3301H10.0657Z" fill="url(#paint4_linear_230_169)"/>
<path d="M23.1881 40.3301V60.661H19.2686V40.3301H23.1881Z" fill="url(#paint5_linear_230_169)"/>
<path d="M33.2017 60.661H29.2822V43.324C29.2822 41.6761 30.7434 40.3301 32.3901 40.3301H42.4556V44.2524H33.2017V48.546H40.8555V52.1202H33.2017V60.661Z" fill="url(#paint6_linear_230_169)"/>
<path d="M52.4713 60.661H48.5518V43.324C48.5518 41.6761 50.0129 40.3301 51.6596 40.3301H61.7251V44.2524H52.4713V48.546H60.1248V52.1202H52.4713V60.661Z" fill="url(#paint7_linear_230_169)"/>
<path d="M80.9947 44.2524H71.7408V48.546H79.3943V52.1202H71.7408V56.7387H80.9947V60.661H70.9291C69.2825 60.661 67.8213 59.3613 67.8213 57.7135V43.324C67.8213 41.6761 69.2825 40.3301 70.9291 40.3301H80.9947V44.2524Z" fill="url(#paint8_linear_230_169)"/>
<path d="M91.0074 44.2758V48.0357H96.3418V44.2758H91.0074ZM97.4781 60.638L94.8574 51.958H91.0074V60.638H87.0879V51.958V48.0357V44.2758V40.3535H97.1534C98.8001 40.3535 100.261 41.6532 100.261 43.301V48.9873C100.261 50.3333 99.2871 51.4706 98.0348 51.8418C98.6609 52.19 99.1711 52.7703 99.3799 53.5128L101.56 60.638H97.4781Z" fill="url(#paint9_linear_230_169)"/>
<path d="M120.828 44.2524H111.574V48.546H119.228V52.1202H111.574V56.7387H120.828V60.661H110.762C109.115 60.661 107.654 59.3613 107.654 57.7135V43.324C107.654 41.6761 109.115 40.3301 110.762 40.3301H120.828V44.2524Z" fill="url(#paint10_linear_230_169)"/>
<path d="M136.177 40.3301H140.096V58.4328C140.096 59.663 139.101 60.661 137.847 60.661H137.36H136.177L130.844 47.2231V60.661H126.923V42.5812C126.923 41.328 127.92 40.3301 129.15 40.3301H129.8H130.844H132.236L136.177 50.3562V40.3301Z" fill="url(#paint11_linear_230_169)"/>
<path d="M161.593 40.3301V44.2524H155.98V60.661H152.036V44.2524H146.193V40.3301H161.593Z" fill="url(#paint12_linear_230_169)"/>
<path d="M313.799 24.5043V20.8547H316.403V19.2906H313.799V13.0342H316.403V11.4701H313.799V3.1282H314.841V10.4273H317.446V14.0769H314.841V18.2479H317.446V21.8974H314.841V23.4616H319.01V13.0342H321.615V6.2564H316.403V2.60683H319.01V0H327.864V2.60683H329.429V0H333.075V5.21367H335.68V7.8205H337.242V2.60683H339.847V0H346.098V2.60683H353.912V6.2564H342.972V5.21367H352.87V3.64957H345.056V1.04274H340.889V3.64957H338.285V8.86324H334.638V6.2564H332.033V1.04274H330.471V3.64957H326.824V1.04274H320.05V3.64957H317.446V5.21367H322.655V14.0769H320.05V24.5043H313.799ZM334.638 3.1282V0H337.762V1.04274H335.68V3.1282H334.638ZM322.135 3.64957V2.60683H324.739V3.64957H322.135ZM342.452 29.718V26.0684H345.056V23.4616H350.265V21.8974H345.056V16.6838H342.452V14.0769H334.638V11.4701H324.219V7.8205H329.429V6.2564H327.344V5.21367H330.471V8.86324H325.26V10.4273H335.68V13.0342H343.494V15.641H346.098V20.8547H351.308V24.5043H346.098V27.111H343.494V28.6753H350.265V27.111H348.181V26.0684H351.308V29.718H342.452ZM355.997 6.2564V5.21367H358.601V6.2564H355.997ZM337.762 11.4701V10.4273H342.452V8.86324H339.847V5.73504H340.889V7.8205H343.494V11.4701H337.762ZM319.01 10.9487V8.86324H316.926V7.8205H320.05V10.9487H319.01ZM358.601 11.4701V10.4273H360.684V8.86324H353.392V7.8205H361.726V11.4701H358.601ZM360.684 21.8974V14.0769H359.121V16.6838H352.87V14.0769H351.308V16.6838H347.661V11.4701H345.056V7.8205H351.308V10.4273H356.517V13.5556H355.475V11.4701H350.265V8.86324H346.098V10.4273H348.703V15.641H350.265V13.0342H353.912V15.641H358.079V13.0342H361.726V20.8547H365.893V18.7692H366.935V21.8974H360.684ZM363.288 10.9487V8.34187H364.331V10.9487H363.288ZM347.661 42.7521V36.4957H350.785V37.5384H348.703V41.7094H350.265V39.1026H352.87V34.9317H347.661V32.3247H339.847V27.111H334.638V19.2906H332.033V16.6838H330.471V19.2906H327.864V20.8547H333.075V27.111H324.219V21.8974H321.615V18.2479H324.219V15.641H326.824V13.0342H329.949V14.0769H327.864V16.6838H325.26V19.2906H322.655V20.8547H325.26V26.0684H332.033V21.8974H326.824V18.2479H329.429V15.641H333.075V18.2479H335.68V26.0684H340.889V31.282H348.703V33.889H353.912V40.1453H351.308V42.7521H347.661ZM363.811 14.0769V13.0342H366.415V14.0769H363.811ZM335.158 16.6838V15.641H340.367V16.6838H335.158ZM363.288 18.7692V15.641H366.415V16.6838H364.331V18.7692H363.288ZM348.181 19.2906V18.2479H353.392V19.2906H348.181ZM352.87 27.111V20.8547H355.475V18.2479H359.121V21.376H358.079V19.2906H356.517V21.8974H353.912V26.0684H355.475V23.4616H359.121V26.0684H361.206V27.111H358.079V24.5043H356.517V27.111H352.87ZM361.206 24.5043V23.4616H363.811V24.5043H361.206ZM327.344 24.5043V23.4616H329.949V24.5043H327.344ZM329.429 37.5384V34.9317H327.344V33.889H330.471V36.4957H332.033V29.718H321.615V23.983H322.655V28.6753H333.075V37.5384H329.429ZM313.799 32.3247V29.1966H314.841V31.282H316.403V27.111H314.321V26.0684H317.446V32.3247H313.799ZM319.01 31.8034V26.5897H320.05V31.8034H319.01ZM360.684 34.9317V29.1966H361.726V33.889H363.288V26.5897H364.331V34.9317H360.684ZM365.893 29.1966V26.5897H366.935V29.1966H365.893ZM334.638 34.9317V28.6753H338.285V31.8034H337.242V29.718H335.68V33.889H337.762V34.9317H334.638ZM355.475 37.5384V33.889H358.079V29.718H353.912V31.282H355.997V32.3247H352.87V28.6753H359.121V34.9317H356.517V36.4957H358.601V37.5384H355.475ZM327.344 32.3247V31.282H329.949V32.3247H327.344ZM313.799 61V54.7436H319.01V52.1367H322.655V55.265H321.615V53.1794H320.05V55.7863H314.841V59.9573H321.615V57.3504H325.26V59.9573H334.638V58.3931H326.824V55.7863H324.219V50.5727H317.446V53.1794H313.799V44.3163H317.446V46.923H319.01V41.7094H321.615V40.1453H319.01V33.889H321.615V31.282H325.26V36.4957H327.864V39.1026H330.471V41.7094H332.033V39.1026H335.68V41.7094H342.452V40.1453H337.762V39.1026H343.494V42.7521H334.638V40.1453H333.075V42.7521H329.429V40.1453H326.824V37.5384H324.219V32.3247H322.655V34.9317H320.05V39.1026H322.655V42.7521H320.05V47.9657H316.403V45.359H314.841V52.1367H316.403V49.53H325.26V54.7436H327.864V57.3504H335.68V61H324.219V58.3931H322.655V61H313.799ZM345.056 39.624V37.5384H342.452V34.9317H340.367V33.889H343.494V36.4957H346.098V39.624H345.056ZM314.321 37.5384V36.4957H316.403V34.9317H314.321V33.889H317.446V37.5384H314.321ZM335.158 37.5384V36.4957H340.367V37.5384H335.158ZM313.799 42.2307V39.1026H317.446V42.2307H316.403V40.1453H314.841V42.2307H313.799ZM355.997 40.1453V39.1026H358.601V40.1453H355.997ZM329.429 55.7863V52.1367H334.638V50.5727H332.033V46.923H334.638V45.359H330.471V50.5727H326.824V47.9657H321.615V44.3163H324.219V39.624H325.26V45.359H322.655V46.923H327.864V49.53H329.429V44.3163H335.68V47.9657H333.075V49.53H335.68V53.1794H330.471V54.7436H332.553V55.7863H329.429ZM326.824 44.8376V42.2307H327.864V44.8376H326.824ZM316.926 58.3931V57.3504H319.53V58.3931H316.926Z" fill="url(#paint13_linear_230_169)"/>
<path d="M244.49 6.2564V5.21367H249.177V1.04274H245.01V2.60683H247.095V3.64957H243.968V0H250.219V6.2564H244.49ZM275.225 18.7692V16.6838H272.621V14.0769H270.016V8.86324H268.452V11.4701H265.847V14.0769H262.2V11.4701H259.596V6.2564H256.991V0H260.638V2.60683H262.2V0.521365H263.242V3.64957H259.596V1.04274H258.033V5.21367H260.638V10.4273H263.242V13.0342H264.807V10.4273H267.411V7.8205H271.056V13.0342H273.661V15.641H276.267V18.7692H275.225ZM290.853 14.0769V8.86324H285.644V6.2564H280.434V3.1282H281.477V5.21367H286.686V7.8205H291.895V13.0342H293.457V10.4273H296.062V7.8205H298.667V2.60683H301.271V1.04274H297.104V6.2564H290.853V0H294.5V3.1282H293.457V1.04274H291.895V5.21367H296.062V0H302.314V3.64957H299.709V8.86324H297.104V11.4701H294.5V14.0769H290.853ZM283.039 3.64957V0H286.164V1.04274H284.081V2.60683H288.248V0.521365H289.29V3.64957H283.039ZM251.782 3.64957V0.521365H252.824V2.60683H254.386V0.521365H255.429V3.64957H251.782ZM252.304 14.0769V13.0342H254.386V10.4273H256.991V8.86324H254.386V6.2564H252.824V11.4701H249.177V8.86324H247.615V10.9487H246.573V7.8205H250.219V10.4273H251.782V5.21367H255.429V7.8205H258.033V11.4701H255.429V14.0769H252.304ZM262.2 8.86324V5.21367H267.932V6.2564H263.242V7.8205H265.327V8.86324H262.2ZM285.644 14.0769V11.4701H283.039V8.86324H277.83V5.73504H278.872V7.8205H284.081V10.4273H286.686V13.0342H288.248V10.9487H289.29V14.0769H285.644ZM275.745 14.0769V13.0342H277.83V11.4701H275.225V8.34187H276.267V10.4273H278.872V14.0769H275.745ZM280.434 14.0769V10.9487H281.477V13.0342H283.559V14.0769H280.434ZM249.177 16.6838V13.5556H250.219V15.641H254.908V16.6838H249.177ZM256.991 16.1624V13.5556H258.033V16.1624H256.991ZM277.83 37.5384V32.3247H272.621V28.6753H275.225V26.0684H278.872V28.6753H280.434V16.6838H278.872V24.5043H272.621V21.8974H268.452V24.5043H260.638V27.111H256.991V24.5043H254.386V21.376H255.429V23.4616H258.033V26.0684H259.596V23.4616H267.411V20.8547H273.661V23.4616H277.83V15.641H281.477V29.718H277.83V27.111H276.267V29.718H273.661V31.282H278.872V36.4957H283.039V33.889H285.644V32.3247H281.477V34.4103H280.434V31.282H286.686V34.9317H284.081V37.5384H277.83ZM256.991 21.8974V18.2479H259.596V15.641H262.722V16.6838H260.638V19.2906H258.033V20.8547H262.2V18.2479H267.411V16.6838H265.327V15.641H268.452V19.2906H263.242V21.8974H256.991ZM283.039 29.1966V26.0684H285.644V23.4616H288.248V16.6838H286.686V19.2906H284.081V20.8547H286.164V21.8974H283.039V18.2479H285.644V15.641H289.29V24.5043H286.686V27.111H284.081V29.1966H283.039ZM270.016 19.2906V16.1624H271.056V18.2479H273.141V19.2906H270.016ZM290.853 21.376V16.1624H291.895V21.376H290.853ZM252.304 19.2906V18.2479H254.908V19.2906H252.304ZM267.932 27.111V26.0684H270.016V23.983H271.056V27.111H267.932ZM259.596 34.4103V31.282H264.807V29.718H262.2V26.0684H265.327V27.111H263.242V28.6753H265.847V32.3247H260.638V34.4103H259.596ZM267.411 32.3247V29.1966H268.452V31.282H270.016V29.1966H271.056V32.3247H267.411ZM256.991 37.5384V31.8034H258.033V36.4957H262.722V37.5384H256.991ZM264.807 37.017V34.9317H262.722V33.889H265.847V37.017H264.807ZM280.434 45.359V42.7521H277.83V40.1453H276.267V42.7521H272.621V40.1453H271.056V42.7521H267.411V33.889H276.267V37.017H275.225V34.9317H268.452V41.7094H270.016V39.1026H273.661V41.7094H275.225V39.1026H278.872V41.7094H281.477V44.3163H283.039V41.7094H294.5V45.359H286.164V44.3163H293.457V42.7521H284.081V45.359H280.434ZM280.955 40.1453V39.1026H285.644V36.4957H288.248V34.4103H289.29V37.5384H286.686V40.1453H280.955ZM270.536 37.5384V36.4957H273.141V37.5384H270.536ZM254.386 39.624V37.017H255.429V39.624H254.386ZM256.991 55.7863V46.923H259.596V40.1453H258.033V42.7521H255.429V50.5727H252.824V52.1367H254.908V53.1794H251.782V49.53H254.386V41.7094H256.991V39.1026H260.638V47.9657H258.033V54.7436H259.596V52.1367H262.2V50.5727H260.118V49.53H263.242V53.1794H260.638V55.7863H256.991ZM260.118 61V59.9573H262.2V54.7436H264.807V40.1453H263.242V47.4444H262.2V39.1026H265.847V55.7863H263.242V61H260.118ZM288.768 40.1453V39.1026H291.373V40.1453H288.768ZM246.573 58.3931V50.0513H247.615V57.3504H249.177V46.923H251.782V42.2307H252.824V47.9657H250.219V58.3931H246.573ZM267.411 50.5727V47.4444H268.452V49.53H270.016V45.359H267.932V44.3163H271.056V50.5727H267.411ZM285.644 61V55.7863H283.039V52.1367H289.29V57.3504H293.457V47.9657H289.29V50.5727H285.644V47.9657H284.081V50.5727H278.872V53.1794H275.225V47.9657H272.621V44.3163H275.745V45.359H273.661V46.923H276.267V52.1367H277.83V49.53H283.039V46.923H286.686V49.53H288.248V46.923H294.5V58.3931H288.248V53.1794H284.081V54.7436H286.686V59.9573H298.667V54.7436H302.314V59.9573H303.876V57.8717H304.918V61H301.271V55.7863H299.709V61H285.644ZM277.83 47.4444V44.8376H278.872V47.4444H277.83ZM296.062 53.1794V47.4444H297.104V52.1367H298.667V50.0513H299.709V53.1794H296.062ZM290.853 55.265V50.0513H291.895V55.265H290.853ZM241.363 61V57.3504H243.968V52.658H245.01V58.3931H242.406V59.9573H247.095V61H241.363ZM267.411 55.265V52.658H268.452V55.265H267.411ZM283.039 60.4787V58.3931H280.434V55.7863H278.872V57.8717H277.83V54.7436H281.477V57.3504H284.081V60.4787H283.039ZM251.782 57.8717V55.265H252.824V57.8717H251.782ZM296.062 57.8717V55.265H297.104V57.8717H296.062ZM254.908 58.3931V57.3504H260.118V58.3931H254.908ZM249.699 61V59.9573H254.908V61H249.699Z" fill="url(#paint14_linear_230_169)"/>
<path d="M192.377 6.2564V1.04274H185.084V0H193.42V5.21367H194.982V0H198.109V1.04274H196.024V6.2564H192.377ZM200.191 11.4701V7.8205H202.796V6.2564H200.191V2.60683H202.796V0H206.443V7.8205H208.005V2.60683H211.652V7.8205H218.946V8.86324H210.61V3.64957H209.047V8.86324H205.4V1.04274H203.838V3.64957H201.233V5.21367H203.838V8.86324H201.233V10.4273H203.318V11.4701H200.191ZM208.527 1.04274V0H211.132V1.04274H208.527ZM181.959 11.4701V8.34187H183.001V10.4273H184.564V6.2564H181.959V2.60683H187.688V3.64957H183.001V5.21367H185.606V11.4701H181.959ZM213.214 6.2564V2.60683H221.55V3.64957H214.257V5.21367H221.55V6.2564H213.214ZM189.773 5.73504V3.1282H190.815V5.73504H189.773ZM197.587 5.73504V3.1282H198.629V5.73504H197.587ZM221.55 8.86324V7.8205H226.239V5.73504H227.28V8.86324H221.55ZM187.168 24.5043V16.6838H184.564V13.0342H189.773V11.4701H187.168V7.8205H193.42V10.4273H194.982V7.8205H198.629V14.0769H195.504V13.0342H197.587V8.86324H196.024V11.4701H192.377V8.86324H188.21V10.4273H190.815V14.0769H185.606V15.641H188.21V23.4616H189.773V20.8547H192.377V13.5556H193.42V21.8974H190.815V24.5043H187.168ZM223.635 32.3247V27.111H215.819V23.4616H218.946V24.5043H216.861V26.0684H224.675V31.282H226.239V18.2479H228.844V14.0769H226.239V10.4273H232.491V15.641H234.053V13.5556H235.095V16.6838H231.449V11.4701H227.28V13.0342H229.884V19.2906H227.28V32.3247H223.635ZM215.819 21.8974V19.2906H210.61V11.4701H206.443V16.6838H202.796V14.0769H201.233V18.2479H203.318V19.2906H200.191V13.0342H203.838V15.641H205.4V10.4273H211.652V18.2479H216.861V20.8547H218.426V18.2479H221.03V13.0342H223.635V11.4701H214.257V13.5556H213.214V10.4273H224.675V14.0769H222.07V19.2906H219.466V21.8974H215.819ZM215.819 16.6838V13.0342H218.946V14.0769H216.861V15.641H218.946V16.6838H215.819ZM181.959 16.1624V13.5556H183.001V16.1624H181.959ZM208.005 16.1624V13.5556H209.047V16.1624H208.005ZM197.587 31.8034V28.6753H202.796V21.8974H201.233V27.111H194.982V23.4616H197.587V19.2906H194.982V15.641H198.109V16.6838H196.024V18.2479H198.629V24.5043H196.024V26.0684H200.191V20.8547H203.838V29.718H198.629V31.8034H197.587ZM223.635 18.7692V15.641H226.759V16.6838H224.675V18.7692H223.635ZM189.773 18.7692V16.1624H190.815V18.7692H189.773ZM181.959 29.718V18.2479H185.606V26.0684H187.688V27.111H184.564V19.2906H183.001V28.6753H185.084V29.718H181.959ZM234.053 21.8974V19.2906H231.969V18.2479H235.095V20.8547H237.178V21.8974H234.053ZM221.03 23.983V20.8547H224.675V23.983H223.635V21.8974H222.07V23.983H221.03ZM228.844 34.9317V20.8547H232.491V31.282H235.095V33.889H236.658V29.718H234.053V23.4616H237.7V26.5897H236.658V24.5043H235.095V28.6753H237.7V34.9317H234.053V32.3247H231.449V21.8974H229.884V33.889H231.969V34.9317H228.844ZM189.773 42.7521V40.1453H181.959V36.4957H187.168V34.9317H184.564V31.282H187.168V28.6753H189.773V26.0684H193.42V28.6753H196.024V34.9317H192.377V32.3247H190.815V36.4957H198.629V39.1026H200.191V36.4957H202.796V32.3247H201.233V34.9317H198.109V33.889H200.191V31.282H203.838V37.5384H201.233V40.1453H197.587V37.5384H189.773V31.282H193.42V33.889H194.982V29.718H192.377V27.111H190.815V29.718H188.21V32.3247H185.606V33.889H188.21V37.5384H183.001V39.1026H190.815V41.7094H194.982V40.1453H192.898V39.1026H196.024V42.7521H189.773ZM208.005 47.9657V45.359H202.796V39.624H203.838V44.3163H209.047V46.923H210.61V44.3163H213.214V41.7094H215.819V28.6753H222.07V31.8034H221.03V29.718H216.861V42.7521H214.257V45.359H211.652V47.9657H208.005ZM181.959 34.4103V31.8034H183.001V34.4103H181.959ZM218.426 34.9317V31.8034H219.466V33.889H226.759V34.9317H218.426ZM231.449 42.7521V37.5384H222.07V40.1453H218.426V37.017H219.466V39.1026H221.03V36.4957H232.491V41.7094H236.658V37.5384H235.095V39.624H234.053V36.4957H237.7V42.7521H231.449ZM228.844 44.8376V42.7521H226.239V39.1026H229.364V40.1453H227.28V41.7094H229.884V44.8376H228.844ZM221.03 50.5727V42.2307H222.07V49.53H223.635V39.624H224.675V50.5727H221.03ZM200.191 50.5727V45.359H197.587V41.7094H200.713V42.7521H198.629V44.3163H201.233V49.53H202.796V46.923H206.443V50.0513H205.4V47.9657H203.838V50.5727H200.191ZM200.191 61V58.3931H192.377V53.1794H181.959V49.53H184.564V41.7094H188.21V46.923H189.773V44.3163H193.42V49.53H194.982V46.923H198.629V52.1367H201.233V54.7436H202.796V52.1367H206.443V59.9573H221.03V55.7863H219.466V58.3931H213.214V55.7863H208.005V52.1367H213.214V49.53H215.819V47.9657H213.736V46.923H216.861V50.5727H214.257V53.1794H209.047V54.7436H214.257V57.3504H218.426V54.7436H222.07V61H205.4V53.1794H203.838V55.7863H200.191V53.1794H197.587V47.9657H196.024V50.5727H192.377V45.359H190.815V47.9657H187.168V42.7521H185.606V50.5727H183.001V52.1367H193.42V57.3504H201.233V59.9573H202.796V57.8717H203.838V61H200.191ZM218.426 47.4444V42.2307H219.466V47.4444H218.426ZM181.959 44.8376V42.2307H183.001V44.8376H181.959ZM234.053 50.0513V45.359H231.969V44.3163H235.095V50.0513H234.053ZM223.635 58.3931V52.1367H226.759V53.1794H224.675V57.3504H226.239V54.7436H228.844V52.1367H231.449V47.9657H227.28V49.53H229.364V50.5727H226.239V46.923H232.491V53.1794H229.884V55.7863H227.28V58.3931H223.635ZM187.688 50.5727V49.53H190.293V50.5727H187.688ZM208.527 50.5727V49.53H211.132V50.5727H208.527ZM218.426 53.1794V50.0513H219.466V52.1367H221.55V53.1794H218.426ZM215.819 55.265V52.658H216.861V55.265H215.819ZM189.773 60.4787V58.3931H187.168V54.7436H190.293V55.7863H188.21V57.3504H190.815V60.4787H189.773ZM195.504 55.7863V54.7436H198.109V55.7863H195.504ZM181.959 58.3931V55.265H183.001V57.3504H184.564V55.265H185.606V58.3931H181.959ZM208.527 58.3931V57.3504H211.132V58.3931H208.527ZM182.479 61V59.9573H187.688V61H182.479ZM192.898 61V59.9573H198.109V61H192.898Z" fill="url(#paint15_linear_230_169)"/>
</g>
<defs>
<linearGradient id="paint0_linear_230_169" x1="0" y1="18.1654" x2="13.1734" y2="18.1654" gradientUnits="userSpaceOnUse">
<stop stop-color="#C6FFDD"/>
<stop offset="0.5" stop-color="#CCCCCC"/>
<stop offset="1" stop-color="#AAAAAA"/>
</linearGradient>
<linearGradient id="paint1_linear_230_169" x1="19.2695" y1="18.1654" x2="36.1215" y2="18.1654" gradientUnits="userSpaceOnUse">
<stop stop-color="#C6FFDD"/>
<stop offset="0.5" stop-color="#CCCCCC"/>
<stop offset="1" stop-color="#AAAAAA"/>
</linearGradient>
<linearGradient id="paint2_linear_230_169" x1="42.2148" y1="18.1657" x2="56.6871" y2="18.1657" gradientUnits="userSpaceOnUse">
<stop stop-color="#C6FFDD"/>
<stop offset="0.5" stop-color="#CCCCCC"/>
<stop offset="1" stop-color="#AAAAAA"/>
</linearGradient>
<linearGradient id="paint3_linear_230_169" x1="62.7832" y1="18.1654" x2="75.9566" y2="18.1654" gradientUnits="userSpaceOnUse">
<stop stop-color="#C6FFDD"/>
<stop offset="0.5" stop-color="#CCCCCC"/>
<stop offset="1" stop-color="#AAAAAA"/>
</linearGradient>
<linearGradient id="paint4_linear_230_169" x1="0" y1="50.4955" x2="13.1734" y2="50.4955" gradientUnits="userSpaceOnUse">
<stop stop-color="#C6FFDD"/>
<stop offset="0.5" stop-color="#CCCCCC"/>
<stop offset="1" stop-color="#AAAAAA"/>
</linearGradient>
<linearGradient id="paint5_linear_230_169" x1="19.2686" y1="50.4955" x2="23.1881" y2="50.4955" gradientUnits="userSpaceOnUse">
<stop stop-color="#C6FFDD"/>
<stop offset="0.5" stop-color="#CCCCCC"/>
<stop offset="1" stop-color="#AAAAAA"/>
</linearGradient>
<linearGradient id="paint6_linear_230_169" x1="29.2822" y1="50.4955" x2="42.4556" y2="50.4955" gradientUnits="userSpaceOnUse">
<stop stop-color="#C6FFDD"/>
<stop offset="0.5" stop-color="#CCCCCC"/>
<stop offset="1" stop-color="#AAAAAA"/>
</linearGradient>
<linearGradient id="paint7_linear_230_169" x1="48.5518" y1="50.4955" x2="61.7251" y2="50.4955" gradientUnits="userSpaceOnUse">
<stop stop-color="#C6FFDD"/>
<stop offset="0.5" stop-color="#CCCCCC"/>
<stop offset="1" stop-color="#AAAAAA"/>
</linearGradient>
<linearGradient id="paint8_linear_230_169" x1="67.8213" y1="50.4955" x2="80.9947" y2="50.4955" gradientUnits="userSpaceOnUse">
<stop stop-color="#C6FFDD"/>
<stop offset="0.5" stop-color="#CCCCCC"/>
<stop offset="1" stop-color="#AAAAAA"/>
</linearGradient>
<linearGradient id="paint9_linear_230_169" x1="87.0879" y1="50.4958" x2="101.56" y2="50.4958" gradientUnits="userSpaceOnUse">
<stop stop-color="#C6FFDD"/>
<stop offset="0.5" stop-color="#CCCCCC"/>
<stop offset="1" stop-color="#AAAAAA"/>
</linearGradient>
<linearGradient id="paint10_linear_230_169" x1="107.654" y1="50.4955" x2="120.828" y2="50.4955" gradientUnits="userSpaceOnUse">
<stop stop-color="#C6FFDD"/>
<stop offset="0.5" stop-color="#CCCCCC"/>
<stop offset="1" stop-color="#AAAAAA"/>
</linearGradient>
<linearGradient id="paint11_linear_230_169" x1="126.923" y1="50.4955" x2="140.096" y2="50.4955" gradientUnits="userSpaceOnUse">
<stop stop-color="#C6FFDD"/>
<stop offset="0.5" stop-color="#CCCCCC"/>
<stop offset="1" stop-color="#AAAAAA"/>
</linearGradient>
<linearGradient id="paint12_linear_230_169" x1="146.193" y1="50.4955" x2="161.593" y2="50.4955" gradientUnits="userSpaceOnUse">
<stop stop-color="#C6FFDD"/>
<stop offset="0.5" stop-color="#CCCCCC"/>
<stop offset="1" stop-color="#AAAAAA"/>
</linearGradient>
<linearGradient id="paint13_linear_230_169" x1="313.799" y1="30.5" x2="366.935" y2="30.5" gradientUnits="userSpaceOnUse">
<stop stop-color="#C6FFDD"/>
<stop offset="0.485577" stop-color="#FBD786"/>
<stop offset="1" stop-color="#F7797D"/>
</linearGradient>
<linearGradient id="paint14_linear_230_169" x1="241.363" y1="30.5" x2="304.918" y2="30.5" gradientUnits="userSpaceOnUse">
<stop stop-color="#C6FFDD"/>
<stop offset="0.485577" stop-color="#FBD786"/>
<stop offset="1" stop-color="#F7797D"/>
</linearGradient>
<linearGradient id="paint15_linear_230_169" x1="181.959" y1="30.5" x2="237.7" y2="30.5" gradientUnits="userSpaceOnUse">
<stop stop-color="#C6FFDD"/>
<stop offset="0.485577" stop-color="#FBD786"/>
<stop offset="1" stop-color="#F7797D"/>
</linearGradient>
<clipPath id="clip0_230_169">
<rect width="367" height="61" fill="white"/>
</clipPath>
</defs>
</svg>
