<svg width="208" height="66" viewBox="0 0 208 66" fill="none" xmlns="http://www.w3.org/2000/svg">
<path d="M12.0463 6.75906V1.12651H4.16078V0H13.1729V5.63255H14.8626V0H18.2421V1.12651H15.9891V6.75906H12.0463ZM20.4952 12.3916V8.44883H23.3114V6.75906H20.4952V2.81628H23.3114V0H27.2542V8.44883H28.944V2.81628H32.8868V8.44883H40.7723V9.57533H31.7603V3.94278H30.0705V9.57533H26.1277V1.12651H24.438V3.94278H21.6217V5.63255H24.438V9.57533H21.6217V11.2651H23.8747V12.3916H20.4952ZM29.5072 1.12651V0H32.3235V1.12651H29.5072ZM0.78125 12.3916V9.01208H1.90776V11.2651H3.59752V6.75906H0.78125V2.81628H6.97705V3.94278H1.90776V5.63255H4.72403V12.3916H0.78125ZM34.5765 6.75906V2.81628H43.5886V3.94278H35.703V5.63255H43.5886V6.75906H34.5765ZM9.23007 6.1958V3.37953H10.3566V6.1958H9.23007ZM17.6789 6.1958V3.37953H18.8054V6.1958H17.6789ZM43.5886 9.57533V8.44883H48.6579V6.1958H49.7844V9.57533H43.5886ZM6.4138 26.473V18.0242H3.59752V14.0814H9.23007V12.3916H6.4138V8.44883H13.1729V11.2651H14.8626V8.44883H18.8054V15.2079H15.4259V14.0814H17.6789V9.57533H15.9891V12.3916H12.0463V9.57533H7.54031V11.2651H10.3566V15.2079H4.72403V16.8976H7.54031V25.3465H9.23007V22.5302H12.0463V14.6446H13.1729V23.6567H10.3566V26.473H6.4138ZM45.8416 34.9218V29.2893H37.3928V25.3465H40.7723V26.473H38.5193V28.1627H46.9681V33.7953H48.6579V19.7139H51.4742V15.2079H48.6579V11.2651H55.417V16.8976H57.1067V14.6446H58.2332V18.0242H54.2905V12.3916H49.7844V14.0814H52.6007V20.8404H49.7844V34.9218H45.8416ZM37.3928 23.6567V20.8404H31.7603V12.3916H27.2542V18.0242H23.3114V15.2079H21.6217V19.7139H23.8747V20.8404H20.4952V14.0814H24.438V16.8976H26.1277V11.2651H32.8868V19.7139H38.5193V22.5302H40.2091V19.7139H43.0254V14.0814H45.8416V12.3916H35.703V14.6446H34.5765V11.2651H46.9681V15.2079H44.1519V20.8404H41.3356V23.6567H37.3928ZM37.3928 18.0242V14.0814H40.7723V15.2079H38.5193V16.8976H40.7723V18.0242H37.3928ZM0.78125 17.4609V14.6446H1.90776V17.4609H0.78125ZM28.944 17.4609V14.6446H30.0705V17.4609H28.944ZM17.6789 34.3585V30.979H23.3114V23.6567H21.6217V29.2893H14.8626V25.3465H17.6789V20.8404H14.8626V16.8976H18.2421V18.0242H15.9891V19.7139H18.8054V26.473H15.9891V28.1627H20.4952V22.5302H24.438V32.1055H18.8054V34.3585H17.6789ZM45.8416 20.2772V16.8976H49.2212V18.0242H46.9681V20.2772H45.8416ZM9.23007 20.2772V17.4609H10.3566V20.2772H9.23007ZM0.78125 32.1055V19.7139H4.72403V28.1627H6.97705V29.2893H3.59752V20.8404H1.90776V30.979H4.16078V32.1055H0.78125ZM57.1067 23.6567V20.8404H54.8537V19.7139H58.2332V22.5302H60.4863V23.6567H57.1067ZM43.0254 25.9097V22.5302H46.9681V25.9097H45.8416V23.6567H44.1519V25.9097H43.0254ZM51.4742 37.7381V22.5302H55.417V33.7953H58.2332V36.6116H59.923V32.1055H57.1067V25.3465H61.0495V28.726H59.923V26.473H58.2332V30.979H61.0495V37.7381H57.1067V34.9218H54.2905V23.6567H52.6007V36.6116H54.8537V37.7381H51.4742ZM9.23007 46.1869V43.3706H0.78125V39.4278H6.4138V37.7381H3.59752V33.7953H6.4138V30.979H9.23007V28.1627H13.1729V30.979H15.9891V37.7381H12.0463V34.9218H10.3566V39.4278H18.8054V42.2441H20.4952V39.4278H23.3114V34.9218H21.6217V37.7381H18.2421V36.6116H20.4952V33.7953H24.438V40.5544H21.6217V43.3706H17.6789V40.5544H9.23007V33.7953H13.1729V36.6116H14.8626V32.1055H12.0463V29.2893H10.3566V32.1055H7.54031V34.9218H4.72403V36.6116H7.54031V40.5544H1.90776V42.2441H10.3566V45.0604H14.8626V43.3706H12.6096V42.2441H15.9891V46.1869H9.23007ZM28.944 51.8194V49.0032H23.3114V42.8074H24.438V47.8767H30.0705V50.6929H31.7603V47.8767H34.5765V45.0604H37.3928V30.979H44.1519V34.3585H43.0254V32.1055H38.5193V46.1869H35.703V49.0032H32.8868V51.8194H28.944ZM0.78125 37.1748V34.3585H1.90776V37.1748H0.78125ZM40.2091 37.7381V34.3585H41.3356V36.6116H49.2212V37.7381H40.2091ZM54.2905 46.1869V40.5544H44.1519V43.3706H40.2091V39.9911H41.3356V42.2441H43.0254V39.4278H55.417V45.0604H59.923V40.5544H58.2332V42.8074H57.1067V39.4278H61.0495V46.1869H54.2905ZM51.4742 48.4399V46.1869H48.6579V42.2441H52.0374V43.3706H49.7844V45.0604H52.6007V48.4399H51.4742ZM43.0254 54.6357V45.6236H44.1519V53.5092H45.8416V42.8074H46.9681V54.6357H43.0254ZM20.4952 54.6357V49.0032H17.6789V45.0604H21.0584V46.1869H18.8054V47.8767H21.6217V53.5092H23.3114V50.6929H27.2542V54.0725H26.1277V51.8194H24.438V54.6357H20.4952ZM20.4952 65.9008V63.0845H12.0463V57.452H0.78125V53.5092H3.59752V45.0604H7.54031V50.6929H9.23007V47.8767H13.1729V53.5092H14.8626V50.6929H18.8054V56.3255H21.6217V59.1418H23.3114V56.3255H27.2542V64.7743H43.0254V60.2683H41.3356V63.0845H34.5765V60.2683H28.944V56.3255H34.5765V53.5092H37.3928V51.8194H35.1398V50.6929H38.5193V54.6357H35.703V57.452H30.0705V59.1418H35.703V61.958H40.2091V59.1418H44.1519V65.9008H26.1277V57.452H24.438V60.2683H20.4952V57.452H17.6789V51.8194H15.9891V54.6357H12.0463V49.0032H10.3566V51.8194H6.4138V46.1869H4.72403V54.6357H1.90776V56.3255H13.1729V61.958H21.6217V64.7743H23.3114V62.5213H24.438V65.9008H20.4952ZM40.2091 51.2562V45.6236H41.3356V51.2562H40.2091ZM0.78125 48.4399V45.6236H1.90776V48.4399H0.78125ZM57.1067 54.0725V49.0032H54.8537V47.8767H58.2332V54.0725H57.1067ZM45.8416 63.0845V56.3255H49.2212V57.452H46.9681V61.958H48.6579V59.1418H51.4742V56.3255H54.2905V51.8194H49.7844V53.5092H52.0374V54.6357H48.6579V50.6929H55.417V57.452H52.6007V60.2683H49.7844V63.0845H45.8416ZM6.97705 54.6357V53.5092H9.79333V54.6357H6.97705ZM29.5072 54.6357V53.5092H32.3235V54.6357H29.5072ZM40.2091 57.452V54.0725H41.3356V56.3255H43.5886V57.452H40.2091ZM37.3928 59.705V56.8887H38.5193V59.705H37.3928ZM9.23007 65.3376V63.0845H6.4138V59.1418H9.79333V60.2683H7.54031V61.958H10.3566V65.3376H9.23007ZM15.4259 60.2683V59.1418H18.2421V60.2683H15.4259ZM0.78125 63.0845V59.705H1.90776V61.958H3.59752V59.705H4.72403V63.0845H0.78125ZM29.5072 63.0845V61.958H32.3235V63.0845H29.5072ZM1.3445 65.9008V64.7743H6.97705V65.9008H1.3445ZM12.6096 65.9008V64.7743H18.2421V65.9008H12.6096Z" fill="url(#paint0_linear_222_161)"/>
<path d="M72.4293 6.75906V5.63255H77.4986V1.12651H72.9926V2.81628H75.2456V3.94278H71.8661V0H78.6251V6.75906H72.4293ZM105.661 20.2772V18.0242H102.845V15.2079H100.029V9.57533H98.3391V12.3916H95.5228V15.2079H91.58V12.3916H88.7637V6.75906H85.9475V0H89.8902V2.81628H91.58V0.563253H92.7065V3.94278H88.7637V1.12651H87.074V5.63255H89.8902V11.2651H92.7065V14.0814H94.3963V11.2651H97.2125V8.44883H101.155V14.0814H103.972V16.8976H106.788V20.2772H105.661ZM122.559 15.2079V9.57533H116.926V6.75906H111.294V3.37953H112.42V5.63255H118.053V8.44883H123.686V14.0814H125.375V11.2651H128.192V8.44883H131.008V2.81628H133.824V1.12651H129.318V6.75906H122.559V0H126.502V3.37953H125.375V1.12651H123.686V5.63255H128.192V0H134.951V3.94278H132.134V9.57533H129.318V12.3916H126.502V15.2079H122.559ZM114.11 3.94278V0H117.49V1.12651H115.237V2.81628H119.743V0.563253H120.869V3.94278H114.11ZM80.3149 3.94278V0.563253H81.4414V2.81628H83.1312V0.563253H84.2577V3.94278H80.3149ZM80.8782 15.2079V14.0814H83.1312V11.2651H85.9475V9.57533H83.1312V6.75906H81.4414V12.3916H77.4986V9.57533H75.8089V11.8283H74.6824V8.44883H78.6251V11.2651H80.3149V5.63255H84.2577V8.44883H87.074V12.3916H84.2577V15.2079H80.8782ZM91.58 9.57533V5.63255H97.7758V6.75906H92.7065V8.44883H94.9595V9.57533H91.58ZM116.926 15.2079V12.3916H114.11V9.57533H108.478V6.1958H109.604V8.44883H115.237V11.2651H118.053V14.0814H119.743V11.8283H120.869V15.2079H116.926ZM106.225 15.2079V14.0814H108.478V12.3916H105.661V9.01208H106.788V11.2651H109.604V15.2079H106.225ZM111.294 15.2079V11.8283H112.42V14.0814H114.673V15.2079H111.294ZM77.4986 18.0242V14.6446H78.6251V16.8976H83.6944V18.0242H77.4986ZM85.9475 17.4609V14.6446H87.074V17.4609H85.9475ZM108.478 40.5544V34.9218H102.845V30.979H105.661V28.1627H109.604V30.979H111.294V18.0242H109.604V26.473H102.845V23.6567H98.3391V26.473H89.8902V29.2893H85.9475V26.473H83.1312V23.0934H84.2577V25.3465H87.074V28.1627H88.7637V25.3465H97.2125V22.5302H103.972V25.3465H108.478V16.8976H112.42V32.1055H108.478V29.2893H106.788V32.1055H103.972V33.7953H109.604V39.4278H114.11V36.6116H116.926V34.9218H112.42V37.1748H111.294V33.7953H118.053V37.7381H115.237V40.5544H108.478ZM85.9475 23.6567V19.7139H88.7637V16.8976H92.1433V18.0242H89.8902V20.8404H87.074V22.5302H91.58V19.7139H97.2125V18.0242H94.9595V16.8976H98.3391V20.8404H92.7065V23.6567H85.9475ZM114.11 31.5423V28.1627H116.926V25.3465H119.743V18.0242H118.053V20.8404H115.237V22.5302H117.49V23.6567H114.11V19.7139H116.926V16.8976H120.869V26.473H118.053V29.2893H115.237V31.5423H114.11ZM100.029 20.8404V17.4609H101.155V19.7139H103.408V20.8404H100.029ZM122.559 23.0934V17.4609H123.686V23.0934H122.559ZM80.8782 20.8404V19.7139H83.6944V20.8404H80.8782ZM97.7758 29.2893V28.1627H100.029V25.9097H101.155V29.2893H97.7758ZM88.7637 37.1748V33.7953H94.3963V32.1055H91.58V28.1627H94.9595V29.2893H92.7065V30.979H95.5228V34.9218H89.8902V37.1748H88.7637ZM97.2125 34.9218V31.5423H98.3391V33.7953H100.029V31.5423H101.155V34.9218H97.2125ZM85.9475 40.5544V34.3585H87.074V39.4278H92.1433V40.5544H85.9475ZM94.3963 39.9911V37.7381H92.1433V36.6116H95.5228V39.9911H94.3963ZM111.294 49.0032V46.1869H108.478V43.3706H106.788V46.1869H102.845V43.3706H101.155V46.1869H97.2125V36.6116H106.788V39.9911H105.661V37.7381H98.3391V45.0604H100.029V42.2441H103.972V45.0604H105.661V42.2441H109.604V45.0604H112.42V47.8767H114.11V45.0604H126.502V49.0032H117.49V47.8767H125.375V46.1869H115.237V49.0032H111.294ZM111.857 43.3706V42.2441H116.926V39.4278H119.743V37.1748H120.869V40.5544H118.053V43.3706H111.857ZM100.592 40.5544V39.4278H103.408V40.5544H100.592ZM83.1312 42.8074V39.9911H84.2577V42.8074H83.1312ZM85.9475 60.2683V50.6929H88.7637V43.3706H87.074V46.1869H84.2577V54.6357H81.4414V56.3255H83.6944V57.452H80.3149V53.5092H83.1312V45.0604H85.9475V42.2441H89.8902V51.8194H87.074V59.1418H88.7637V56.3255H91.58V54.6357H89.327V53.5092H92.7065V57.452H89.8902V60.2683H85.9475ZM89.327 65.9008V64.7743H91.58V59.1418H94.3963V43.3706H92.7065V51.2562H91.58V42.2441H95.5228V60.2683H92.7065V65.9008H89.327ZM120.306 43.3706V42.2441H123.122V43.3706H120.306ZM74.6824 63.0845V54.0725H75.8089V61.958H77.4986V50.6929H80.3149V45.6236H81.4414V51.8194H78.6251V63.0845H74.6824ZM97.2125 54.6357V51.2562H98.3391V53.5092H100.029V49.0032H97.7758V47.8767H101.155V54.6357H97.2125ZM116.926 65.9008V60.2683H114.11V56.3255H120.869V61.958H125.375V51.8194H120.869V54.6357H116.926V51.8194H115.237V54.6357H109.604V57.452H105.661V51.8194H102.845V47.8767H106.225V49.0032H103.972V50.6929H106.788V56.3255H108.478V53.5092H114.11V50.6929H118.053V53.5092H119.743V50.6929H126.502V63.0845H119.743V57.452H115.237V59.1418H118.053V64.7743H131.008V59.1418H134.951V64.7743H136.64V62.5213H137.767V65.9008H133.824V60.2683H132.134V65.9008H116.926ZM108.478 51.2562V48.4399H109.604V51.2562H108.478ZM128.192 57.452V51.2562H129.318V56.3255H131.008V54.0725H132.134V57.452H128.192ZM122.559 59.705V54.0725H123.686V59.705H122.559ZM69.0498 65.9008V61.958H71.8661V56.8887H72.9926V63.0845H70.1763V64.7743H75.2456V65.9008H69.0498ZM97.2125 59.705V56.8887H98.3391V59.705H97.2125ZM114.11 65.3376V63.0845H111.294V60.2683H109.604V62.5213H108.478V59.1418H112.42V61.958H115.237V65.3376H114.11ZM80.3149 62.5213V59.705H81.4414V62.5213H80.3149ZM128.192 62.5213V59.705H129.318V62.5213H128.192ZM83.6944 63.0845V61.958H89.327V63.0845H83.6944ZM78.0619 65.9008V64.7743H83.6944V65.9008H78.0619Z" fill="url(#paint1_linear_222_161)"/>
<path d="M149.767 26.473V22.5302H152.583V20.8404H149.767V14.0814H152.583V12.3916H149.767V3.37953H150.893V11.2651H153.709V15.2079H150.893V19.7139H153.709V23.6567H150.893V25.3465H155.399V14.0814H158.215V6.75906H152.583V2.81628H155.399V0H164.974V2.81628H166.664V0H170.607V5.63255H173.423V8.44883H175.113V2.81628H177.929V0H184.688V2.81628H193.137V6.75906H181.309V5.63255H192.011V3.94278H183.562V1.12651H179.056V3.94278H176.24V9.57533H172.297V6.75906H169.481V1.12651H167.791V3.94278H163.848V1.12651H156.526V3.94278H153.709V5.63255H159.342V15.2079H156.526V26.473H149.767ZM172.297 3.37953V0H175.676V1.12651H173.423V3.37953H172.297ZM158.779 3.94278V2.81628H161.595V3.94278H158.779ZM180.746 32.1055V28.1627H183.562V25.3465H189.194V23.6567H183.562V18.0242H180.746V15.2079H172.297V12.3916H161.032V8.44883H166.664V6.75906H164.411V5.63255H167.791V9.57533H162.158V11.2651H173.423V14.0814H181.872V16.8976H184.688V22.5302H190.321V26.473H184.688V29.2893H181.872V30.979H189.194V29.2893H186.941V28.1627H190.321V32.1055H180.746ZM195.39 6.75906V5.63255H198.207V6.75906H195.39ZM175.676 12.3916V11.2651H180.746V9.57533H177.929V6.1958H179.056V8.44883H181.872V12.3916H175.676ZM155.399 11.8283V9.57533H153.146V8.44883H156.526V11.8283H155.399ZM198.207 12.3916V11.2651H200.46V9.57533H192.574V8.44883H201.586V12.3916H198.207ZM200.46 23.6567V15.2079H198.77V18.0242H192.011V15.2079H190.321V18.0242H186.378V12.3916H183.562V8.44883H190.321V11.2651H195.953V14.6446H194.827V12.3916H189.194V9.57533H184.688V11.2651H187.505V16.8976H189.194V14.0814H193.137V16.8976H197.643V14.0814H201.586V22.5302H206.092V20.2772H207.219V23.6567H200.46ZM203.276 11.8283V9.01208H204.402V11.8283H203.276ZM186.378 46.1869V39.4278H189.758V40.5544H187.505V45.0604H189.194V42.2441H192.011V37.7381H186.378V34.9218H177.929V29.2893H172.297V20.8404H169.481V18.0242H167.791V20.8404H164.974V22.5302H170.607V29.2893H161.032V23.6567H158.215V19.7139H161.032V16.8976H163.848V14.0814H167.227V15.2079H164.974V18.0242H162.158V20.8404H159.342V22.5302H162.158V28.1627H169.481V23.6567H163.848V19.7139H166.664V16.8976H170.607V19.7139H173.423V28.1627H179.056V33.7953H187.505V36.6116H193.137V43.3706H190.321V46.1869H186.378ZM203.839 15.2079V14.0814H206.655V15.2079H203.839ZM172.86 18.0242V16.8976H178.493V18.0242H172.86ZM203.276 20.2772V16.8976H206.655V18.0242H204.402V20.2772H203.276ZM186.941 20.8404V19.7139H192.574V20.8404H186.941ZM192.011 29.2893V22.5302H194.827V19.7139H198.77V23.0934H197.643V20.8404H195.953V23.6567H193.137V28.1627H194.827V25.3465H198.77V28.1627H201.023V29.2893H197.643V26.473H195.953V29.2893H192.011ZM201.023 26.473V25.3465H203.839V26.473H201.023ZM164.411 26.473V25.3465H167.227V26.473H164.411ZM166.664 40.5544V37.7381H164.411V36.6116H167.791V39.4278H169.481V32.1055H158.215V25.9097H159.342V30.979H170.607V40.5544H166.664ZM149.767 34.9218V31.5423H150.893V33.7953H152.583V29.2893H150.33V28.1627H153.709V34.9218H149.767ZM155.399 34.3585V28.726H156.526V34.3585H155.399ZM200.46 37.7381V31.5423H201.586V36.6116H203.276V28.726H204.402V37.7381H200.46ZM206.092 31.5423V28.726H207.219V31.5423H206.092ZM172.297 37.7381V30.979H176.24V34.3585H175.113V32.1055H173.423V36.6116H175.676V37.7381H172.297ZM194.827 40.5544V36.6116H197.643V32.1055H193.137V33.7953H195.39V34.9218H192.011V30.979H198.77V37.7381H195.953V39.4278H198.207V40.5544H194.827ZM164.411 34.9218V33.7953H167.227V34.9218H164.411ZM149.767 65.9008V59.1418H155.399V56.3255H159.342V59.705H158.215V57.452H156.526V60.2683H150.893V64.7743H158.215V61.958H162.158V64.7743H172.297V63.0845H163.848V60.2683H161.032V54.6357H153.709V57.452H149.767V47.8767H153.709V50.6929H155.399V45.0604H158.215V43.3706H155.399V36.6116H158.215V33.7953H162.158V39.4278H164.974V42.2441H167.791V45.0604H169.481V42.2441H173.423V45.0604H180.746V43.3706H175.676V42.2441H181.872V46.1869H172.297V43.3706H170.607V46.1869H166.664V43.3706H163.848V40.5544H161.032V34.9218H159.342V37.7381H156.526V42.2441H159.342V46.1869H156.526V51.8194H152.583V49.0032H150.893V56.3255H152.583V53.5092H162.158V59.1418H164.974V61.958H173.423V65.9008H161.032V63.0845H159.342V65.9008H149.767ZM183.562 42.8074V40.5544H180.746V37.7381H178.493V36.6116H181.872V39.4278H184.688V42.8074H183.562ZM150.33 40.5544V39.4278H152.583V37.7381H150.33V36.6116H153.709V40.5544H150.33ZM172.86 40.5544V39.4278H178.493V40.5544H172.86ZM149.767 45.6236V42.2441H153.709V45.6236H152.583V43.3706H150.893V45.6236H149.767ZM195.39 43.3706V42.2441H198.207V43.3706H195.39ZM166.664 60.2683V56.3255H172.297V54.6357H169.481V50.6929H172.297V49.0032H167.791V54.6357H163.848V51.8194H158.215V47.8767H161.032V42.8074H162.158V49.0032H159.342V50.6929H164.974V53.5092H166.664V47.8767H173.423V51.8194H170.607V53.5092H173.423V57.452H167.791V59.1418H170.044V60.2683H166.664ZM163.848 48.4399V45.6236H164.974V48.4399H163.848ZM153.146 63.0845V61.958H155.962V63.0845H153.146Z" fill="url(#paint2_linear_222_161)"/>
<defs>
<linearGradient id="paint0_linear_222_161" x1="0.78125" y1="32.9504" x2="61.0495" y2="32.9504" gradientUnits="userSpaceOnUse">
<stop stop-color="#C6FFDD"/>
<stop offset="0.485577" stop-color="#FBD786"/>
<stop offset="1" stop-color="#F7797D"/>
</linearGradient>
<linearGradient id="paint1_linear_222_161" x1="69.0498" y1="32.9504" x2="137.767" y2="32.9504" gradientUnits="userSpaceOnUse">
<stop stop-color="#C6FFDD"/>
<stop offset="0.485577" stop-color="#FBD786"/>
<stop offset="1" stop-color="#F7797D"/>
</linearGradient>
<linearGradient id="paint2_linear_222_161" x1="149.767" y1="32.9504" x2="207.219" y2="32.9504" gradientUnits="userSpaceOnUse">
<stop stop-color="#C6FFDD"/>
<stop offset="0.485577" stop-color="#FBD786"/>
<stop offset="1" stop-color="#F7797D"/>
</linearGradient>
</defs>
</svg>
